<?xml version="1.0" encoding="utf-8"?>
<!-- Generator: Adobe Illustrator 24.0.0, SVG Export Plug-In . SVG Version: 6.00 Build 0)  -->
<svg version="1.1" id="Capa_1" xmlns="http://www.w3.org/2000/svg" xmlns:xlink="http://www.w3.org/1999/xlink" x="0px" y="0px"
	 viewBox="0 0 400 132.7" style="enable-background:new 0 0 400 132.7;" xml:space="preserve">
<style type="text/css">
	.st0{fill:#FFFAFA;}
</style>
<g>
	<g>
		<g>
			<g>
				<path class="st0" d="M174.6,24.4h-9.5v-9.5c0-1.8-1.4-3.2-3.2-3.2s-3.2,1.4-3.2,3.2v9.5h-9.5c-1.8,0-3.2,1.4-3.2,3.2
					c0,1.8,1.4,3.2,3.2,3.2h9.5v9.5c0,1.8,1.4,3.2,3.2,3.2s3.2-1.4,3.2-3.2v-9.5h9.5c1.8,0,3.2-1.4,3.2-3.2
					C177.8,25.9,176.3,24.4,174.6,24.4z"/>
			</g>
		</g>
		<g>
			<g>
				<g>
					<path class="st0" d="M132.9,80.5c-0.1-0.4-0.5-1.5-1-3.3l-2.5-7.5c-1.3-4-2.2-6.6-2.7-8.1c-0.6-2-1.2-3.6-1.5-4.9
						c-0.5-1.7-2.3-2.6-4-2.1c-1,0.3-1.8,1.1-2.1,2.1c-0.4,1.4-1,3.1-1.6,5.2c-0.5,1.6-1.3,4.1-2.4,7.4l-2.1,6.4l-1.5,4.5
						c-0.7,1.6,0,3.5,1.6,4.2c0.4,0.2,0.8,0.3,1.3,0.3h7.8l7.4-0.2c1.8,0.1,3.2-1.3,3.3-3.1C133,81.1,133,80.8,132.9,80.5z
						 M122.1,78.2h-3.3l0.2-0.7l2.1-6.3l1-3.1l1.2,3.5l2,6.5L122.1,78.2z"/>
				</g>
			</g>
			<g>
				<g>
					<path class="st0" d="M161,101.4c-0.3-1.2-0.7-2.4-1.3-3.5c-0.6-1.3-1.6-3.5-2.8-6.5c-1.3-3.2-2.9-7.2-4.9-12v-0.2
						c-0.5-1.2-0.9-2-1.1-2.5v-0.2c-0.3-0.6-0.5-1.1-0.8-1.5c-6.3-16-11-27.5-14-34.4c-1-2.7-2.9-4.9-5.3-6.4
						c-2.8-1.6-5.9-2.4-9.1-2.3c-1.3,0-2.7,0.2-4,0.5c-1.3,0.4-2.5,0.9-3.7,1.5c-1.3,0.7-2.4,1.6-3.4,2.6c-0.9,1-1.7,2.2-2.2,3.5
						l-13,31.7c-1.4,3.5-2.9,7.1-4.5,10.8c-1.6,3.7-3.3,7.5-5.2,11.6c-0.7,1.6-1.3,3.2-1.8,4.9c-0.4,1.4-0.6,2.9-0.7,4.4
						c0,1.8,0.4,3.7,1.2,5.3c0.8,1.6,2.1,3,3.6,4c1.4,0.9,2.9,1.6,4.5,2c1.6,0.5,3.3,0.7,5,0.7c2.3,0.1,4.6-0.6,6.5-2
						c1.9-1.4,3.3-3.3,4.2-5.5v-0.2l3.2-8.6h21.1c0.2,0.6,0.5,1.3,0.8,2.1c0.8,2,1.8,4.5,3,7.3c0.8,2.2,2.4,4.1,4.4,5.4
						c2.1,1.2,4.5,1.8,7,1.8c1.7,0,3.4-0.2,5.1-0.8c1.6-0.5,3.1-1.3,4.4-2.4c1.2-1,2.2-2.1,3-3.5c0.8-1.3,1.1-2.8,1.1-4.3
						C161.4,103.6,161.3,102.5,161,101.4z M154.7,106.1c-0.4,0.6-0.9,1.2-1.5,1.6c-0.7,0.6-1.5,1-2.3,1.2c-1,0.3-2.1,0.5-3.1,0.4
						c-1.3,0.1-2.5-0.2-3.6-0.8c-0.8-0.5-1.5-1.4-1.8-2.3c-1.3-3-2.3-5.4-2.9-7.2c-0.6-1.8-1.1-3-1.3-3.8c-0.4-1.3-1.5-2.3-2.9-2.3
						c-0.8,0-2.5,0-5.2,0h-10.5h-10.1c-1.3,0-2.5,0.8-3,2.1l-4,10.9c-0.4,1.1-1.1,2-2,2.7c-0.8,0.6-1.8,0.8-2.9,0.8
						c-1.1,0-2.2-0.1-3.2-0.4c-1-0.3-1.9-0.7-2.7-1.2c-0.6-0.4-1.1-0.9-1.4-1.5c-0.4-0.9-0.5-1.8-0.5-2.7c0-0.9,0.2-1.9,0.4-2.8
						c0.4-1.4,0.9-2.7,1.4-4c1.9-4,3.6-7.8,5.2-11.6s3.2-7.4,4.6-11l13-31.7c0.2-0.6,0.6-1.1,1-1.6c0.5-0.5,1-1,1.7-1.3
						c0.7-0.4,1.5-0.7,2.4-1c0.7-0.2,1.5-0.3,2.3-0.3c2-0.1,3.9,0.3,5.7,1.2c1.2,0.7,2.1,1.8,2.6,3.1c0,0.1,0.1,0.2,0.1,0.4
						c3,6.7,7.6,18.2,14,34.3l0.2,0.3c0.2,0.4,0.5,0.9,0.8,1.5v0.2c0.4,0.9,0.8,1.6,1.1,2.3c2,5,3.6,8.9,5,12c1.3,3,2.3,5.3,2.9,6.8
						c0.3,0.7,0.6,1.5,0.8,2.3c0.2,0.6,0.2,1.3,0.2,2C155.1,105.2,155,105.7,154.7,106.1z"/>
				</g>
			</g>
		</g>
		<g>
			<g>
				<g>
					<path class="st0" d="M58,61.4c0.1-1.8-0.2-3.7-0.8-5.4c-0.6-1.7-1.6-3.2-2.9-4.4c-1.4-1.3-3-2.2-4.8-2.7
						c-1.9-0.5-3.9-0.8-5.9-0.8h-1.7h-2.6h-2.5h-1.5c-1.8,0-3.2,1.4-3.2,3.2c0,0,0,0,0,0l0.1,19.3c0,0,0,0.2,0,0.3
						c0,1.8,1.4,3.2,3.2,3.2h6.9c1.9,0,3.8-0.2,5.7-0.7c1.8-0.5,3.4-1.2,5-2.2c1.6-1,2.9-2.5,3.8-4.2C57.6,65.2,58,63.3,58,61.4
						L58,61.4z M51.6,61.2c0,1-0.2,1.9-0.6,2.8c-0.4,0.7-1,1.4-1.7,1.8c-0.9,0.6-2,1.1-3.1,1.4c-1.3,0.3-2.6,0.5-4,0.5h-3.7V54.6h1
						h2.6h1.6c1.4,0,2.8,0.1,4.2,0.5c0.8,0.2,1.6,0.6,2.3,1.2c0.6,0.5,1,1.2,1.2,2c0.3,1,0.5,2.1,0.4,3.1L51.6,61.2z"/>
				</g>
			</g>
			<g>
				<g>
					<path class="st0" d="M78.4,99.9c-0.5-1.2-1.3-2.4-2.1-3.4c-3.1-4.1-5.9-7.6-8.2-10.6l-2.5-3.2c0.9-0.6,1.7-1.3,2.6-2
						c1.8-1.7,3.3-3.5,4.6-5.6c1.3-2.1,2.3-4.4,2.9-6.7c0.7-2.4,1-4.9,1-7.3c0.1-4.1-0.7-8.1-2.3-11.9c-1.6-3.6-4-6.8-7-9.3
						c-3.1-2.6-6.6-4.5-10.4-5.8c-4.1-1.3-8.3-1.9-12.6-1.8H39h-2.5h-1.8l-3.2,0.1l-3.8,0.2c-1.8,0.1-3.5,0.4-5.2,1
						c-1.7,0.6-3.3,1.4-4.6,2.5c-1.4,1.1-2.5,2.6-3.3,4.2c-0.7,1.7-1.1,3.5-1.1,5.3c0,0.2,0,0.9,0,2.1c0,1.2,0,2,0,3s0,2.2,0,3
						c0,0.5,0,1.1,0,2c0,0.1,0,0.2,0,0.3c0,6.6,0,14.8,0,24.6s0,17.4,0,22.9c0,4.6,1.3,7.8,3.8,9.8c1.4,1,3,1.7,4.7,2
						c1.9,0.4,3.8,0.5,5.8,0.4h0.1c3-0.1,5.9-1.3,7.9-3.5c1.9-2.3,2.9-5.3,2.7-8.3c0-0.1,0-1.2,0-3.3c0-1.4,0-3.2,0-5.2
						c0-2,0-3.8,0-5.3v-0.4h1h2.6c0.8,1.1,1.6,2.3,2.6,3.7c1.3,1.9,2.9,4.3,4.8,7.1l4,5.9l2,2.9l0.1,0.2l1.3,1.7
						c0.4,0.5,0.7,0.9,1,1.2c0.4,0.5,0.9,0.9,1.5,1.2c0.6,0.4,1.1,0.7,1.7,1c0.7,0.4,1.5,0.7,2.3,0.9c0.8,0.2,1.6,0.3,2.5,0.3h0.4
						c1.5-0.1,3.1-0.3,4.5-0.9c1.5-0.5,3-1.4,4.2-2.4c1.3-1,2.3-2.3,3-3.7c0.7-1.4,1.1-3,1.1-4.6C79.1,102.5,78.9,101.1,78.4,99.9z
						 M72.3,106c-0.3,0.6-0.8,1.2-1.4,1.6c-0.7,0.6-1.4,1-2.3,1.3c-0.8,0.3-1.7,0.5-2.6,0.5h-0.1c-0.3,0-0.7,0-1-0.1
						c-0.3-0.1-0.6-0.2-0.9-0.3c-0.3-0.2-0.7-0.4-1-0.6c-0.1-0.1-0.3-0.2-0.4-0.3l-0.8-0.9l-1.1-1.5l-1.9-2.8l-4-5.9
						c-1.8-2.6-3.4-5-4.8-7.2c-1.3-1.9-2.5-3.6-3.5-4.9c-0.6-0.9-1.6-1.5-2.7-1.5h-1.6h-2.6h-4.3c-1.8,0-3.2,1.4-3.2,3.2
						c0,0.3,0,1.5,0,3.6c0,1.5,0,3.3,0,5.3s0,3.8,0,5.2c0,0.8,0,1.9,0,3.2c0.1,1.5-0.3,2.9-1.1,4.1c-1,0.9-2.3,1.4-3.6,1.4
						c-1.4,0.1-2.8,0-4.1-0.3c-0.7-0.1-1.4-0.4-2-0.8c-0.9-0.7-1.3-2.3-1.3-4.7c0-9,0-16.6,0-22.9c0-6,0-14.2,0-24.6
						c0-0.1,0-0.2,0-0.3c0-0.8,0-1.5,0-2.2c0-1.3,0-2.3,0-3c0-1.2,0-1.6,0-1.5c0-0.5,0-1,0-1.4c0-0.8,0-1.1,0-2
						c-0.1-1,0-1.9,0.4-2.9c0.3-0.7,0.8-1.4,1.4-1.8c0.8-0.6,1.7-1.1,2.6-1.4c1.1-0.4,2.3-0.6,3.4-0.6H28l3.7-0.2l3.1-0.1h1.6H39
						h5.2c3.6,0,7.2,0.5,10.7,1.5c3,0.9,5.8,2.5,8.3,4.5c2.3,1.8,4.1,4.2,5.2,6.9c1.2,3,1.8,6.2,1.8,9.4c0,1.9-0.2,3.8-0.7,5.6
						c-0.5,1.8-1.2,3.5-2.1,5c-0.9,1.6-2.1,3-3.4,4.2c-1.2,1.1-2.6,2.1-4.1,2.8c-1.6,0.7-2.4,2.5-1.7,4.2c0.1,0.2,0.2,0.4,0.4,0.6
						c1,1.3,2.5,3.4,4.7,6.2l8.2,10.7c0.5,0.6,0.8,1.3,1.1,2c0.2,0.6,0.3,1.2,0.3,1.8C72.6,104.8,72.5,105.4,72.3,106L72.3,106
						L72.3,106z"/>
				</g>
			</g>
		</g>
		<g>
			<path class="st0" d="M192.6,64.9V32.5c0-1.9,1.1-3,3-3h5.9c6.2,0,8.9,2.9,8.9,8.7v2.3c0,3.9-1.2,6.4-3.9,7.5v0.1c3,0.9,4,3.7,4,8
				v5.9c0,1,0.1,1.6,0.2,2.2c0.2,0.6,0.2,0.9,0.2,1.5c0,1.3-1,2-2.8,2c-2.4,0-3.6-1.2-3.6-4.7v-7.3c0-3.5-1-4.7-3.7-4.7h-2.1v13.6
				c0,1.9-1.1,3-3,3C193.7,67.9,192.6,66.8,192.6,64.9z M200.7,45.8c2.2,0,3.6-1,3.6-4v-2.9c0-2.7-0.9-3.9-3-3.9h-2.7v10.9H200.7z"
				/>
			<path class="st0" d="M217,64.6V32.5c0-1.7,1.2-3,3-3h10.9c1.6,0,2.7,1.1,2.7,2.7s-1.1,2.7-2.7,2.7H223V45h5.8
				c1.6,0,2.7,1.1,2.7,2.7s-1.1,2.7-2.7,2.7H223v11.7h7.9c1.6,0,2.7,1.1,2.7,2.7c0,1.6-1.1,2.7-2.7,2.7H220
				C218.2,67.5,217,66.3,217,64.6z"/>
			<path class="st0" d="M238,64.9c0-0.3,0.1-0.7,0.1-1l5.2-30.9c0.4-2.5,2.2-4.1,4.7-4.1c2.5,0,4.2,1.6,4.6,4.1l5.2,30.9
				c0.1,0.3,0.1,0.6,0.1,0.9c0,1.8-1,3-2.7,3c-1.8,0-2.8-1.1-3.1-2.9l-0.7-5v0.1h-7.1l-0.7,5c-0.3,1.9-1.3,2.8-2.8,2.8
				C239.2,67.9,238,66.9,238,64.9z M250.5,54.9l-2.8-19.3h-0.1l-2.8,19.3H250.5z"/>
			<path class="st0" d="M263.5,64.6V32.2c0-1.7,1.2-3,3-3c1.7,0,3,1.2,3,3v29.9h7.4c1.6,0,2.7,1.1,2.7,2.7c0,1.6-1.1,2.7-2.7,2.7
				h-10.4C264.8,67.5,263.5,66.3,263.5,64.6z"/>
			<path class="st0" d="M284.7,64.9V32.2c0-1.7,1.2-3,3-3c1.7,0,3,1.2,3,3v32.7c0,1.7-1.2,3-3,3C285.9,67.9,284.7,66.6,284.7,64.9z"
				/>
			<path class="st0" d="M297.6,64.6V32.5c0-1.7,1.2-3,3-3h6.1c6,0,8.9,3.3,8.9,9.4v19.2c0,6.1-2.9,9.4-8.9,9.4h-6.1
				C298.9,67.5,297.6,66.3,297.6,64.6z M306.7,62.1c1.9,0,3-1,3-3.7V38.6c0-2.7-1.1-3.7-3-3.7h-3v27.2H306.7z"/>
			<path class="st0" d="M320.8,64.9c0-0.3,0.1-0.7,0.1-1l5.2-30.9c0.4-2.5,2.2-4.1,4.7-4.1c2.5,0,4.2,1.6,4.6,4.1l5.2,30.9
				c0.1,0.3,0.1,0.6,0.1,0.9c0,1.8-1,3-2.7,3c-1.8,0-2.8-1.1-3.1-2.9l-0.7-5v0.1H327l-0.7,5c-0.3,1.9-1.3,2.8-2.8,2.8
				C322,67.9,320.8,66.9,320.8,64.9z M333.4,54.9l-2.8-19.3h-0.1l-2.8,19.3H333.4z"/>
			<path class="st0" d="M346.4,64.6V32.5c0-1.7,1.2-3,3-3h6.1c6,0,8.9,3.3,8.9,9.4v19.2c0,6.1-2.9,9.4-8.9,9.4h-6.1
				C347.6,67.5,346.4,66.3,346.4,64.6z M355.4,62.1c1.9,0,3-1,3-3.7V38.6c0-2.7-1.1-3.7-3-3.7h-3v27.2H355.4z"/>
			<path class="st0" d="M370.9,64.6V32.5c0-1.7,1.2-3,3-3h10.9c1.6,0,2.7,1.1,2.7,2.7s-1.1,2.7-2.7,2.7h-7.9V45h5.8
				c1.6,0,2.7,1.1,2.7,2.7s-1.1,2.7-2.7,2.7h-5.8v11.7h7.9c1.6,0,2.7,1.1,2.7,2.7c0,1.6-1.1,2.7-2.7,2.7h-10.9
				C372.2,67.5,370.9,66.3,370.9,64.6z"/>
			<path class="st0" d="M191.3,113.9c0-0.3,0.1-0.7,0.1-1l5.2-30.9c0.4-2.5,2.2-4.1,4.7-4.1s4.2,1.6,4.6,4.1l5.2,30.9
				c0.1,0.3,0.1,0.6,0.1,0.9c0,1.8-1,3-2.7,3c-1.8,0-2.8-1.1-3.1-2.9l-0.7-5v0.1h-7.1l-0.7,5c-0.3,1.9-1.3,2.8-2.8,2.8
				C192.5,116.8,191.3,115.9,191.3,113.9z M203.9,103.9l-2.8-19.3H201l-2.8,19.3H203.9z"/>
			<path class="st0" d="M214.1,107.4V81.1c0-1.9,1.1-3,3-3c1.9,0,3,1.1,3,3v26.8c0,2.7,1.1,3.7,3,3.7c1.9,0,3-1,3-3.7V81
				c0-1.8,1-2.9,2.9-2.9c1.8,0,2.9,1,2.9,2.9v26.5c0,6.1-3,9.6-8.9,9.6C217.1,117,214.1,113.5,214.1,107.4z"/>
			<path class="st0" d="M236.1,114.2V82.9c0-2.9,1.5-4.8,4.3-4.8s4.4,1.4,4.8,4.2l3.3,23.5h0.1l3.3-23.6c0.4-2.7,1.8-4.1,4.6-4.1
				c2.8,0,4.5,1.8,4.5,4.7V114c0,1.8-1,2.8-2.8,2.8c-1.8,0-2.8-1-2.8-2.8V87.3h-0.1l-4,26.8c-0.2,1.6-1.2,2.6-2.8,2.6
				c-1.6,0-2.6-0.9-2.8-2.6l-4-26.8h-0.1v26.8c0,1.7-0.9,2.6-2.6,2.6C237,116.8,236.1,115.9,236.1,114.2z"/>
			<path class="st0" d="M265.4,113.5V81.4c0-1.7,1.2-3,3-3h10.9c1.6,0,2.7,1.1,2.7,2.7s-1.1,2.7-2.7,2.7h-7.9v10.1h5.8
				c1.6,0,2.7,1.1,2.7,2.7s-1.1,2.7-2.7,2.7h-5.8V111h7.9c1.6,0,2.7,1.1,2.7,2.7c0,1.6-1.1,2.7-2.7,2.7h-10.9
				C266.6,116.5,265.4,115.2,265.4,113.5z"/>
			<path class="st0" d="M285.1,114.1V82.5c0-2.7,1.5-4.4,3.9-4.4c2.6,0,3.8,1.5,4.5,4l4.9,19.2h0.1V80.8c0-1.7,1-2.7,2.7-2.7
				c1.7,0,2.7,1,2.7,2.7v32.5c0,2.6-1.3,3.5-3.2,3.5c-2.1,0-3.1-1-3.7-3.5l-6.4-24.7h-0.1v25.5c0,1.7-1,2.7-2.7,2.7
				C286.1,116.8,285.1,115.8,285.1,114.1z"/>
			<path class="st0" d="M313,113.8V83.9h-3.9c-1.7,0-2.7-1-2.7-2.7c0-1.7,1-2.7,2.7-2.7h13.7c1.7,0,2.7,1,2.7,2.7
				c0,1.7-1,2.7-2.7,2.7h-3.9v29.9c0,1.9-1.1,3-3,3C314,116.8,313,115.7,313,113.8z"/>
			<path class="st0" d="M324.3,113.9c0-0.3,0.1-0.7,0.1-1l5.2-30.9c0.4-2.5,2.2-4.1,4.7-4.1s4.2,1.6,4.6,4.1l5.2,30.9
				c0.1,0.3,0.1,0.6,0.1,0.9c0,1.8-1,3-2.7,3c-1.8,0-2.8-1.1-3.1-2.9l-0.7-5v0.1h-7.1l-0.7,5c-0.3,1.9-1.3,2.8-2.8,2.8
				C325.5,116.8,324.3,115.9,324.3,113.9z M336.9,103.9L334,84.5h-0.1l-2.8,19.3H336.9z"/>
			<path class="st0" d="M347.3,113.5V81.4c0-1.7,1.2-3,3-3h6.1c6,0,8.9,3.3,8.9,9.4v19.2c0,6.1-2.9,9.4-8.9,9.4h-6.1
				C348.6,116.5,347.3,115.2,347.3,113.5z M356.4,111c1.9,0,3-1,3-3.7V87.6c0-2.7-1.1-3.7-3-3.7h-3V111H356.4z"/>
			<path class="st0" d="M368.1,113.9c0-0.3,0.1-0.7,0.1-1l5.2-30.9c0.4-2.5,2.2-4.1,4.7-4.1c2.5,0,4.2,1.6,4.6,4.1l5.2,30.9
				c0.1,0.3,0.1,0.6,0.1,0.9c0,1.8-1,3-2.7,3c-1.8,0-2.8-1.1-3.1-2.9l-0.7-5v0.1h-7.1l-0.7,5c-0.3,1.9-1.3,2.8-2.8,2.8
				C369.2,116.8,368.1,115.9,368.1,113.9z M380.6,103.9l-2.8-19.3h-0.1l-2.8,19.3H380.6z"/>
		</g>
	</g>
</g>
</svg>
