<?xml version="1.0" encoding="utf-8"?>
<!-- Generator: Adobe Illustrator 24.0.0, SVG Export Plug-In . SVG Version: 6.00 Build 0)  -->
<svg version="1.1" id="Camada_1" xmlns="http://www.w3.org/2000/svg" xmlns:xlink="http://www.w3.org/1999/xlink" x="0px" y="0px"
	 viewBox="0 0 597 1335" style="enable-background:new 0 0 597 1335;" xml:space="preserve">
<style type="text/css">
	.st0{fill:#FFFFFF;}
</style>
<path class="st0" d="M477.5,1216.9c-18.4,0.1-33.4-14.6-33.5-33c-0.1-18.4,14.6-33.4,33-33.5h0.5c5.5,0,10-4.5,10-10V744.8
	c0-5.5-4.5-10-10-10H151.9c-29.4,0-53.3,23.9-53.3,53.3v395.5c0,29.4,23.8,53.2,53.2,53.2h13.6v47.7c0,3.5,1.8,6.7,4.7,8.5
	c2.9,1.8,6.6,2,9.7,0.4l42.9-21.4l42.9,21.4c3.1,1.5,6.8,1.4,9.7-0.4c2.9-1.8,4.7-5,4.7-8.5v-47.7h197.4c5.5,0,10-4.5,10-10
	S483,1216.9,477.5,1216.9L477.5,1216.9z M126,1137.1c-0.6,0.3-1.2,0.7-1.8,1.1c-1.3,0.8-2.5,1.6-3.8,2.5c-0.6,0.4-1.2,0.9-1.8,1.4
	V904.1c0-18.4,14.9-33.3,33.3-33.3h315.6v259.6H151.8c-1.2,0-2.5,0.1-3.7,0.2c-0.4,0-0.7,0-1.1,0.1c-1.1,0.1-2.1,0.3-3.1,0.4
	c-0.6,0.1-1.2,0.2-1.8,0.3c-1,0.2-1.9,0.4-2.9,0.6c-0.6,0.1-1.2,0.3-1.9,0.5c-0.9,0.3-1.8,0.5-2.7,0.9c-0.6,0.2-1.2,0.4-1.9,0.7
	c-0.9,0.3-1.7,0.7-2.6,1.1c-0.6,0.3-1.2,0.6-1.8,0.9C127.6,1136.3,126.8,1136.7,126,1137.1z M467.5,850.8H151.9
	c-12.1,0-23.9,4.1-33.3,11.7v-16.4c0-18.4,14.9-33.3,33.3-33.3h315.6V850.8z M151.9,754.8h315.6v38H151.9
	c-12.1,0-23.9,4.2-33.3,11.8v-16.5C118.6,769.7,133.5,754.8,151.9,754.8z M151.8,1216.9c-18.4,0-33.3-14.9-33.3-33.3
	c0-18.4,14.9-33.3,33.3-33.3H436c-5.4,6.8-9.1,14.8-10.7,23.3h-273c-5.5,0-10,4.5-10,10c0,5.5,4.5,10,10,10h13.3v23.2H151.8z
	 M260.1,1268.4l-32.9-16.4c-2.8-1.4-6.1-1.4-8.9,0l-32.9,16.4v-74.8h74.7V1268.4z M280.1,1216.9v-23.3h145.1
	c1.6,8.5,5.3,16.5,10.7,23.2L280.1,1216.9z"/>
<path class="st0" d="M247.8,1008.6l-7.3,42.4c-0.6,3.7,0.9,7.5,4,9.8c3.1,2.2,7.1,2.5,10.5,0.8l38.1-20l38,20
	c3.4,1.8,7.4,1.5,10.5-0.8c3.1-2.2,4.6-6,4-9.8l-7.3-42.4l30.8-30c2.7-2.7,3.7-6.6,2.5-10.2c-1.2-3.6-4.3-6.2-8.1-6.8l-42.5-6.2
	l-19-38.6c-1.7-3.4-5.2-5.6-9-5.6c-3.8,0-7.3,2.2-9,5.6l-19,38.6l-42.6,6.2c-3.8,0.6-6.9,3.2-8.1,6.8c-1.2,3.6-0.2,7.6,2.5,10.2
	L247.8,1008.6z M273.1,974.4c3.3-0.5,6.1-2.5,7.5-5.5l12.4-25.1l12.4,25.1c1.5,3,4.3,5,7.5,5.5l27.7,4l-20,19.5
	c-2.4,2.3-3.4,5.6-2.9,8.9l4.7,27.6l-24.8-13c-2.9-1.5-6.4-1.5-9.3,0l-24.8,13l4.7-27.6c0.6-3.2-0.5-6.5-2.9-8.8l-20.1-19.5
	L273.1,974.4z"/>
</svg>
