<?xml version="1.0" encoding="utf-8"?>
<!-- Generator: Adobe Illustrator 24.0.0, SVG Export Plug-In . SVG Version: 6.00 Build 0)  -->
<svg version="1.1" id="Capa_1" xmlns="http://www.w3.org/2000/svg" xmlns:xlink="http://www.w3.org/1999/xlink" x="0px" y="0px"
	 viewBox="0 0 353.9 493.6" style="enable-background:new 0 0 353.9 493.6;" xml:space="preserve">
<style type="text/css">
	.st0{fill:#FFFFFF;}
</style>
<g>
	<g>
		<path class="st0" d="M300.4,250.7c-30.3-15.1-71.4-24.7-117-25.6v-39.8c0-3.6-2.9-6.4-6.4-6.4s-6.4,2.9-6.4,6.4v39.8
			c-45.5,0.8-86.7,10.4-117,25.6c-33.1,16.5-53.5,40-53.5,66c0,26,20.4,49.5,53.5,66c30.3,15.1,71.4,24.7,117,25.6V448
			c0,3.6,2.9,6.4,6.4,6.4s6.4-2.9,6.4-6.4v-39.8c45.5-0.8,86.7-10.4,117-25.6c33.1-16.5,53.5-40,53.5-66
			C353.9,290.8,333.4,267.2,300.4,250.7z M170.4,374.2c-26.8-3.1-48-24.3-51-51.1h51V374.2z M170.4,310.2h-51
			c3-26.8,24.2-48.1,51-51.1V310.2z M170.4,246.2c-34,3.1-60.9,30-64,64H45.6c-3.6,0-6.4,2.9-6.4,6.4s2.9,6.4,6.4,6.4h60.8
			c3.1,34,30,60.9,64,64v8c-43.5-0.8-82.6-9.9-111.2-24.2c-28.6-14.3-46.2-33.4-46.2-54.2s17.7-40,46.4-54.4s67.8-23.4,111.2-24
			L170.4,246.2z M234.4,310.2h-51l-0.2-51C210.1,262.2,231.3,283.4,234.4,310.2z M234.4,323.2c-3,26.8-24.2,48-51,51l-0.2-51H234.4
			L234.4,323.2z M294.6,371.1l-0.2,0.1c-28.6,14.3-67.8,23.4-111.2,24.2v-8c34-3.1,60.9-30,64-64H308c3.6,0,6.4-2.9,6.4-6.4
			s-2.9-6.4-6.4-6.4h-60.6c-3.1-34-30-60.9-64-64v-8c43.5,0.8,82.6,9.9,111.2,24c28.6,14.1,46.3,33.3,46.3,54.2
			S323.3,356.7,294.6,371.1z"/>
	</g>
</g>
</svg>
