<?xml version="1.0" encoding="utf-8"?>
<!-- Generator: Adobe Illustrator 24.0.0, SVG Export Plug-In . SVG Version: 6.00 Build 0)  -->
<svg version="1.1" id="Capa_1" xmlns="http://www.w3.org/2000/svg" xmlns:xlink="http://www.w3.org/1999/xlink" x="0px" y="0px"
	 viewBox="0 0 353.9 507.3" style="enable-background:new 0 0 353.9 507.3;" xml:space="preserve">
<style type="text/css">
	.st0{fill:#FFFFFF;}
</style>
<g>
	<g>
		<path class="st0" d="M235.2,127.4h-116c-13,0-23.7,10-24.6,23V342c0,13.6,11.1,24.7,24.7,24.7h115.8c13.6,0,24.7-11.1,24.7-24.7
			V150.3C258.9,137.4,248.2,127.4,235.2,127.4z M110.8,143.8c2.2-2.2,5.2-3.5,8.4-3.5h116c5.8,0.1,10.7,4.3,11.7,10.1H107.5
			C107.9,147.9,109.1,145.6,110.8,143.8z M246.9,342c0,6.6-5.4,12-12,12h-116c-6.6,0-12-5.4-12-12h0.4v-12h139.6V342z M246.9,317.1
			H107.4l0-153.8h139.6V317.1z"/>
	</g>
</g>
<g>
	<g>
		<circle class="st0" cx="177.2" cy="341.5" r="6.6"/>
	</g>
</g>
<g>
	<g>
		<path class="st0" d="M343.9,306.5c-7.4-10.5-16.8-19.4-27.7-26.2c-2.6-2.5-6.6-2.4-9.1,0.2c-2.5,2.6-2.4,6.6,0.2,9.1
			c0.6,0.5,1.2,1,1.9,1.3c9.4,5.9,17.6,13.6,24,22.6c5,6.9,7.8,15.1,8,23.6c0,19.2-15,37-39.7,50.9c-25.4,14.3-60.6,24-100.6,27
			l-20.6-12l-21.2-12.2c-3.1-1.8-7-0.7-8.8,2.4c-0.6,1-0.8,2.1-0.9,3.2v18.3c-38.6-3.2-72.3-13.1-97.1-26.9
			c-24.8-13.8-39.2-31.6-39.2-50.7c0.2-8.5,3-16.8,8-23.7c6.4-9,14.6-16.7,24-22.6c2.9-2.1,3.5-6.1,1.3-9c-1.9-2.6-5.5-3.4-8.4-1.8
			c-11,6.8-20.5,15.7-28,26.2c-6.4,9-9.9,19.8-10.1,30.9c0,24,17.3,45.7,45.9,61.9c26.4,14.9,62.6,25.3,103.4,28.6v18.1
			c0,3.6,2.9,6.4,6.5,6.4c1.3,0,2.5-0.4,3.6-1.1l20.9-12l0.3-0.2l18.3-10.6c43-2.7,81.2-13.3,108.8-28.7
			c28.8-16,46.3-37.9,46.3-62.2C353.8,326.3,350.3,315.6,343.9,306.5z M174.3,427.5H174l-11.6,6.7V421v-13.4l11.6,6.7l11.6,6.7
			L174.3,427.5z"/>
	</g>
</g>
</svg>
