<?xml version="1.0" encoding="utf-8"?>
<!-- Generator: Adobe Illustrator 24.0.0, SVG Export Plug-In . SVG Version: 6.00 Build 0)  -->
<svg version="1.1" id="Capa_1" xmlns="http://www.w3.org/2000/svg" xmlns:xlink="http://www.w3.org/1999/xlink" x="0px" y="0px"
	 viewBox="0 0 392.1 453.8" style="enable-background:new 0 0 392.1 453.8;" xml:space="preserve">
<style type="text/css">
	.st0{fill:#FFFFFF;}
</style>
<g>
	<g>
		<path class="st0" d="M287.2,157.8c-17.4,0-31.5,14.1-31.5,31.5c0,8.4,3.4,16.5,9.4,22.4c5.9,5.8,13.8,9.1,22.1,9
			c17.4,0,31.5-14.1,31.5-31.5S304.6,157.8,287.2,157.8z M300.3,202.6c-7.3,7.2-19,7.2-26.2,0c-3.5-3.5-5.4-8.2-5.4-13.1
			c0-4.9,2-9.6,5.4-13.1c7.3-7.2,19-7.2,26.2,0C307.6,183.6,307.6,195.4,300.3,202.6z"/>
	</g>
</g>
<g>
	<g>
		<path class="st0" d="M115,231.2c-31.7,0-57.4,25.7-57.4,57.4v6.4h114.7v-6.4C172.4,256.9,146.7,231.2,115,231.2z M115,282.1H71
			c3.6-24.3,26.2-41.1,50.5-37.5c19.4,2.9,34.6,18.1,37.5,37.5H115z"/>
	</g>
</g>
<g>
	<g>
		<path class="st0" d="M115,157.8c-17.4,0-31.5,14.1-31.5,31.5c0,8.4,3.3,16.4,9.2,22.3c5.9,5.9,13.9,9.2,22.2,9.2
			c17.4,0,31.5-14.1,31.5-31.5S132.4,157.8,115,157.8z M128.2,202.6c-7.3,7.2-19,7.2-26.2,0c-3.5-3.5-5.4-8.2-5.4-13.1
			c0-4.9,2-9.6,5.4-13.1c7.3-7.2,19-7.2,26.2,0C135.4,183.6,135.4,195.4,128.2,202.6z"/>
	</g>
</g>
<g>
	<g>
		<path class="st0" d="M287.2,231.2c-31.7,0-57.4,25.7-57.4,57.4v6.4h114.7v-6.4C344.6,256.9,318.9,231.2,287.2,231.2z M287.2,282.1
			h-44c3.6-24.3,26.2-41.1,50.5-37.5c19.4,2.9,34.6,18.1,37.5,37.5H287.2z"/>
	</g>
</g>
<g>
	<g>
		<path class="st0" d="M347,105.4H55c-17.1,0-31,13.9-31,31v185.1c0,17.1,13.9,31,31,31h95.8v50.8h-22.1c-12.3,0-22.3,10-22.4,22.4
			c0.1,6,2.5,11.6,6.8,15.8c4.2,4.2,10,6.6,16,6.6h144.4c5.9,0,11.5-2.4,15.6-6.5c4.2-4.2,6.6-9.9,6.6-15.8c0.1-6-2.3-11.8-6.6-16
			c-4.2-4.2-9.9-6.6-15.8-6.6h-21.9v-50.7H347c17.1,0,31-13.9,31-31V136.4C378,119.3,364.2,105.4,347,105.4z M37.1,136.4
			c0-10,8.1-18.1,18.2-18.2h139.4v196.8H37.1V136.4z M273.5,416.4L273.5,416.4c2.6,0,5,1,6.8,2.8c1.8,1.8,2.8,4.2,2.8,6.7
			c0,5.2-4.2,9.5-9.5,9.5l0,0H128.7c-2.5,0-4.9-1-6.7-2.8c-1.8-1.8-2.8-4.2-2.8-6.7c0-5.2,4.3-9.5,9.5-9.5H273.5z M163.7,403.4
			v-50.8h74.8v50.8H163.7z M359.8,334.3h-0.1c-3.4,3.4-8,5.3-12.8,5.3h-292c-4.8,0-9.4-1.9-12.8-5.3c-1.8-1.8-3.1-4-4-6.4h325.8
			C363,330.4,361.6,332.5,359.8,334.3z M365.1,315.1H207.6V118.3H347c10,0.1,18.1,8.2,18.1,18.2L365.1,315.1L365.1,315.1z"/>
	</g>
</g>
</svg>
