<?xml version="1.0" encoding="utf-8"?>
<!-- Generator: Adobe Illustrator 24.0.0, SVG Export Plug-In . SVG Version: 6.00 Build 0)  -->
<svg version="1.1" id="Capa_1" xmlns="http://www.w3.org/2000/svg" xmlns:xlink="http://www.w3.org/1999/xlink" x="0px" y="0px"
	 viewBox="0 0 353.9 353.9" style="enable-background:new 0 0 353.9 353.9;" xml:space="preserve">
<style type="text/css">
	.st0{fill:#FFFFFF;}
</style>
<g>
	<g>
		<g>
			<path class="st0" d="M146.1,188.7c-0.5-1.2-1.3-2.3-2.2-3.2c-1.1-1-2.3-1.9-3.6-2.6c1.3-1.1,2.5-2.4,3.4-3.8
				c0.8-1.4,1.2-3,1.2-4.6c0-1.4-0.2-2.7-0.8-4c-0.6-1.2-1.4-2.3-2.4-3.1c-1.1-0.9-2.4-1.6-3.8-2.1c-1.6-0.5-3.2-0.7-4.8-0.7
				c-1.8,0-3.7,0.3-5.4,0.8c-1.5,0.5-2.8,1.3-4,2.3c-1,0.8-1.9,1.8-2.5,3c-0.5,0.9-0.8,1.9-0.8,3c0,0.9,0.3,1.7,0.9,2.4
				c0.5,0.6,1.2,0.9,2,0.9c0.6,0,1.1-0.1,1.6-0.3c0.4-0.2,0.8-0.5,1-0.9l1-2.2c0.3-0.7,0.7-1.4,1.2-2c0.5-0.5,1-1,1.7-1.2
				c0.9-0.3,1.8-0.5,2.7-0.5c1.5-0.1,3,0.4,4,1.5c0.9,1,1.5,2.3,1.4,3.6c0.1,1.6-0.6,3.2-1.8,4.2c-1.2,1-2.8,1.5-4.3,1.5l-0.8-0.3
				c-1-0.1-2,0.2-2.9,0.8c-0.7,0.5-1,1.3-1,2.1c-0.1,0.8,0.2,1.5,0.8,2.1c0.6,0.5,1.5,0.8,2.3,0.8h1.5h1.7c1.8-0.1,3.6,0.5,4.8,1.8
				c1.2,1.4,1.8,3.1,1.7,5c0,1.3-0.3,2.6-1,3.8c-0.6,1-1.5,1.9-2.6,2.4c-1,0.5-2.1,0.8-3.2,0.8c-1.7,0.1-3.4-0.6-4.6-1.8
				c-1.3-1.7-2.4-3.6-3-5.6c-0.2-0.5-0.5-0.8-0.9-1.1c-0.4-0.3-1-0.4-1.5-0.4c-0.9,0-1.8,0.3-2.5,1c-0.7,0.7-1,1.6-1,2.5
				c0.1,1.1,0.3,2.1,0.8,3.1c0.6,1.3,1.5,2.5,2.5,3.6c1.2,1.2,2.7,2.2,4.3,2.8c1.8,0.8,3.8,1.2,5.8,1.2c2,0,4-0.4,5.8-1.2
				c1.7-0.6,3.2-1.6,4.6-2.8c1.2-1.1,2.2-2.5,2.9-4c0.4-1.4,0.5-2.8,0.4-4.2C146.9,191.4,146.7,190,146.1,188.7z"/>
			<path class="st0" d="M231.2,152.2c-2-2-4.6-3.1-7.4-3.1l0.4-0.2c-2.9-0.1-5.7,1.1-7.8,3.2c0,0,0,0,0,0c-4.1,4.1-4.1,10.7,0,14.8
				c0.2,0.3,0.5,0.5,0.8,0.8c4.3,3.9,10.9,3.5,14.8-0.8S235.5,156.1,231.2,152.2z M227,162.2c-1.6,1.6-4.1,1.6-5.7,0c0,0,0,0,0,0
				c-1.6-1.6-1.5-4.1,0-5.7c0,0,0,0,0,0c1.6-1.6,4.1-1.5,5.7,0C228.6,158.1,228.6,160.7,227,162.2z"/>
			<path class="st0" d="M177.4,182.4c-1.1-1.2-2.5-2.1-4-2.8c-1.5-0.6-3.1-1-4.8-1c-1.7,0-3.3,0.4-4.8,1.1c-1.5,0.7-2.8,1.8-3.8,3.1
				c-0.1-3.5,0.7-7,2.3-10.1c0.6-0.9,1.4-1.7,2.4-2.2c0.9-0.5,1.9-0.8,2.9-0.8c1.1,0,2.2,0.3,3.2,1c0.9,0.6,1.6,1.6,2,2.6
				c0.3,0.8,0.8,1.5,1.4,2c0.6,0.5,1.4,0.7,2.1,0.7c0.8,0,1.6-0.3,2.1-0.9c0.5-0.5,0.8-1.3,0.8-2c0-1.4-0.5-2.8-1.4-4
				c-1-1.4-2.4-2.6-4-3.4c-1.9-0.9-4-1.4-6.1-1.4c-2.2,0-4.4,0.4-6.4,1.4c-1.9,0.9-3.6,2.3-4.8,4c-1.4,2-2.5,4.3-3,6.7
				c-0.7,3-1.1,6.1-1,9.2c-0.1,3.6,0.5,7.2,1.8,10.6c1.9,5.5,7.1,9,12.9,8.8c2.5,0,4.9-0.6,7-1.7c2.1-1.1,3.7-2.8,4.9-4.9
				c1.2-2.1,1.8-4.5,1.8-7c0-1.7-0.3-3.4-0.9-5C179.4,184.9,178.5,183.5,177.4,182.4z M171.7,197.6c-1.1,1.4-2.7,2.3-4.5,2.2
				l0.2-0.2c-1.9,0.1-3.8-0.7-5-2.2c-1.3-1.8-2-3.9-1.9-6.1c0-1.4,0.3-2.8,0.9-4c0.6-1.1,1.4-2,2.5-2.6c1-0.6,2.1-0.9,3.2-0.9
				c1.1,0,2.3,0.3,3.2,0.9c1,0.7,1.8,1.6,2.3,2.7c0.6,1.3,0.9,2.8,0.8,4.2C173.6,193.8,172.9,195.9,171.7,197.6z"/>
			<path class="st0" d="M208.3,167.6c-1.1-1.1-2.5-2-4-2.6c-1.7-0.5-3.4-0.7-5.2-0.6c-5.3-0.3-10.2,3-12,8c-0.7,1.8-1.1,3.7-1.4,5.6
				c-0.3,2.4-0.5,4.9-0.4,7.4c0,2,0.1,3.9,0.4,5.9c0.2,1.7,0.7,3.4,1.2,5c1,2.6,2.7,4.8,4.9,6.4c2.2,1.5,4.7,2.4,7.4,2.3
				c2.3,0,4.5-0.6,6.5-1.7c2-1.2,3.6-2.9,4.8-4.9c1-1.8,1.7-3.8,2-5.8c0.4-2.5,0.6-5.1,0.6-7.6c0.3-4.4-0.3-8.9-1.9-13
				C210.5,170.3,209.6,168.9,208.3,167.6z M205.1,192.7c-0.1,1.8-0.8,3.6-1.8,5.2c-0.1,0.1-0.2,0.2-0.4,0.4
				c-2.1,1.9-5.5,1.8-7.4-0.4c-1.1-1.4-1.8-3.1-2-4.9c-0.4-2.8-0.5-5.6-0.4-8.5c-0.3-3.7,0.1-7.4,1.1-11c0.7-2.2,2.7-3.7,5-3.6
				c1.5-0.1,3,0.5,4,1.6c1.1,1.4,1.8,3,2,4.8c0.4,2.6,0.6,5.3,0.6,8C205.9,187.1,205.6,189.9,205.1,192.7z"/>
		</g>
	</g>
</g>
<g>
	<g>
		<path class="st0" d="M302.3,52C269.1,18.7,224.1,0,177.1,0C79.4-0.1,0.1,79,0,176.8s79,177,176.8,177.1
			c97.7,0.1,177-79,177.1-176.8C354,130.2,335.4,85.2,302.3,52z M262,109.8c11.3,3.3,22.3,7.5,32.8,12.7
			c28.7,14.5,46.3,33.6,46.3,54.5s-17.6,40-46.3,54.4h0c-10.6,5.2-21.5,9.4-32.8,12.7C271,199.8,271,154.1,262,109.8z M336.1,136.2
			c-10.3-10.4-22.3-18.9-35.5-25.2l0,0c-13.4-6.6-27.5-11.8-42-15.5c-3.7-14.5-8.9-28.5-15.5-42c-6.3-13.2-14.9-25.3-25.3-35.6
			C275.8,32.8,321.2,78.2,336.1,136.2z M248,247.9c-46.7,10.5-95.1,10.5-141.8,0c-10.5-46.7-10.5-95.1,0-141.8
			c46.7-10.5,95.1-10.5,141.8,0C258.5,152.8,258.5,201.2,248,247.9z M177.1,13c20.9,0,40,17.7,54.4,46.4
			c5.2,10.6,9.4,21.5,12.7,32.8c-44.3-9-90-9-134.4,0c3.3-11.3,7.5-22.3,12.7-32.8C137.1,30.6,156.3,13,177.1,13z M61.1,61
			c20.8-20.8,46.8-35.7,75.3-43c-10.4,10.3-19,22.3-25.3,35.6c-6.6,13.4-11.8,27.5-15.5,42c-14.5,3.7-28.5,8.9-42,15.5
			c-13.2,6.3-25.3,14.9-35.6,25.3C25.5,107.8,40.3,81.8,61.1,61z M59.4,122.5L59.4,122.5c10.6-5.2,21.6-9.4,32.9-12.7
			c-9,44.3-9,90,0,134.4c-11.3-3.3-22.3-7.5-32.8-12.7C30.8,217,13.1,197.8,13.1,177S30.8,137,59.4,122.5z M61.1,293
			c-20.8-20.8-35.7-46.8-43-75.3c10.3,10.4,22.3,19,35.6,25.3c13.4,6.6,27.5,11.8,42,15.5c3.7,14.5,8.9,28.5,15.5,42
			c6.3,13.2,14.9,25.3,25.3,35.6C107.9,328.6,81.9,313.8,61.1,293z M177.1,341c-20.9,0-40-17.7-54.4-46.4
			c-5.2-10.6-9.4-21.5-12.7-32.8c44.3,9,90,9,134.4,0c-3.3,11.3-7.5,22.3-12.7,32.8C217.1,323.3,198,341,177.1,341z M293.1,293
			c-20.8,20.8-46.8,35.7-75.3,43c10.4-10.3,19-22.3,25.3-35.6c6.6-13.4,11.8-27.5,15.5-42c14.5-3.7,28.5-8.9,42-15.5
			c13.2-6.3,25.3-14.9,35.6-25.3C328.8,246.1,314,272.2,293.1,293z"/>
	</g>
</g>
</svg>
