<?xml version="1.0" encoding="utf-8"?>
<!-- Generator: Adobe Illustrator 24.0.0, SVG Export Plug-In . SVG Version: 6.00 Build 0)  -->
<svg version="1.1" id="Capa_1" xmlns="http://www.w3.org/2000/svg" xmlns:xlink="http://www.w3.org/1999/xlink" x="0px" y="0px"
	 viewBox="0 0 380 510.6" style="enable-background:new 0 0 380 510.6;" xml:space="preserve">
<style type="text/css">
	.st0{fill:#FFFFFF;}
</style>
<g>
	<g>
		<path class="st0" d="M189,327.2c-18.4,0-33.2,14.9-33.2,33.2c0,8.8,3.5,17.3,9.8,23.5c6.2,6.2,14.7,9.7,23.5,9.7
			c18.4,0,33.2-14.9,33.2-33.2C222.2,342.1,207.3,327.2,189,327.2z M203.4,374.9c-7.9,8-20.8,8-28.8,0c-3.8-3.8-6-9-6-14.4
			c0-5.4,2.1-10.6,6-14.4c7.9-8,20.8-8,28.8,0C211.3,354,211.3,366.9,203.4,374.9z"/>
	</g>
</g>
<g>
	<g>
		<path class="st0" d="M94.5,232.5H47.8c-3.6,0-6.4,2.9-6.4,6.4s2.9,6.4,6.4,6.4h46.7c3.6,0,6.4-2.9,6.4-6.4S98,232.5,94.5,232.5z"
			/>
	</g>
</g>
<g>
	<g>
		<path class="st0" d="M177,232.5h-46.6c-3.6,0-6.4,2.9-6.4,6.4s2.9,6.4,6.4,6.4H177c3.6,0,6.4-2.9,6.4-6.4
			C183.4,235.4,180.5,232.5,177,232.5z"/>
	</g>
</g>
<g>
	<g>
		<path class="st0" d="M258.9,344.9c-2.7-2.6-6.2-4-10-4h-6.2c-0.3-0.7-0.6-1.5-0.9-2.3s-0.6-1.5-0.9-2.3l4.4-4.4
			c5.5-5.5,5.5-14.4,0-20c0,0,0,0,0,0l-8-8c-5.3-5.3-13.9-5.5-19.5-0.4l-0.5,0.4l-4.5,4.6l-2.2-1l-2.2-0.9v-6.3c0-3.7-1.4-7.3-4-10
			c-2.7-2.6-6.2-4-10-4h-11.1c-7.8,0-14.1,6.3-14.1,14.1v6.3l-2.2,0.9l-2.2,1l-4.5-4.5c-5.3-5.3-13.8-5.6-19.4-0.6l-0.5,0.4l-8,8
			c-5.5,5.5-5.5,14.4,0,20c0,0,0,0,0,0l4.5,4.3c-0.3,0.7-0.7,1.5-1,2.2c-0.3,0.7-0.6,1.5-0.9,2.3H129c-7.8,0-14.1,6.3-14.1,14.1V366
			c0,3.5,1.3,6.9,3.7,9.5l0.3,0.5c2.7,2.6,6.3,4,10,4h6.3c0.3,0.7,0.6,1.5,0.9,2.3s0.7,1.5,1,2.2l-4.4,4.6c-5.5,5.5-5.5,14.4,0,20
			c0,0,0,0,0,0l8,8c5.3,5.3,13.9,5.5,19.5,0.4l0.5-0.4l4.4-4.7l2.2,1l2.2,0.9v6.3c-0.1,3.5,1.2,6.9,3.5,9.5l0.4,0.5
			c2.7,2.6,6.3,4,10,4h11.1c3.7,0,7.3-1.4,10-4c2.6-2.7,4-6.2,4-10v-6.4l2.3-0.9l2.2-1l4.4,4.4c5.3,5.3,13.9,5.5,19.5,0.4l0.5-0.4
			l8-8c5.5-5.5,5.5-14.4,0-20c0,0,0,0,0,0l-4.4-4.3c0.3-0.7,0.7-1.5,1-2.2s0.6-1.5,0.9-2.2h6.1c3.7,0,7.3-1.4,10-4
			c2.6-2.7,4-6.2,4-10v-11.2C263,351.2,261.5,347.6,258.9,344.9z M250.2,366c0,0.7-0.6,1.2-1.2,1.2h-10.9c-3.1,0-5.7,2.1-6.3,5.1
			c-0.5,1.7-1.1,3.5-1.8,5.1c-0.7,1.8-1.6,3.5-2.6,5.2c-1.4,2.5-1,5.7,1,7.7l7.8,7.8c0.2,0.2,0.4,0.6,0.4,0.9c0,0.3-0.1,0.6-0.4,0.9
			l-8,8c-0.2,0.2-0.5,0.2-0.8,0.2c-0.3,0-0.6-0.1-0.9-0.4l-7.8-7.8c-2.2-2.2-5.7-2.5-8.2-0.7c-1.5,0.8-3.1,1.6-4.7,2.3
			c-1.8,0.7-3.6,1.3-5.4,1.8c-2.8,0.8-4.7,3.3-4.7,6.2v11c0,0.7-0.6,1.2-1.2,1.2h-11.1c-0.3,0-0.6-0.1-0.9-0.4
			c-0.2-0.2-0.2-0.5-0.2-0.8v-11.1c0-3.2-2.2-5.9-5.4-6.4c-1.7-0.4-3.4-1-5-1.6c-1.8-0.7-3.5-1.6-5.2-2.6c-2.5-1.4-5.7-1-7.7,1
			l-7.8,7.8c-0.2,0.2-0.5,0.2-0.8,0.2c-0.3,0-0.6-0.1-0.9-0.4l-8-8c-0.4-0.5-0.4-1.3,0-1.8l7.8-7.8c2.2-2.2,2.5-5.7,0.7-8.2
			c-0.9-1.5-1.6-3.1-2.3-4.7c-0.7-1.8-1.3-3.6-1.8-5.4c-0.8-2.8-3.3-4.8-6.2-4.8H129c-0.3,0-0.6-0.1-0.9-0.4
			c-0.2-0.2-0.2-0.5-0.2-0.8l-0.2-11.1c0-0.7,0.6-1.3,1.3-1.3c0,0,0.1,0,0.1,0h11c3.1,0,5.7-2.1,6.3-5.1c1-3.6,2.4-7,4.3-10.3
			c1.5-2.5,1-5.7-1-7.8l-7.8-7.8c-0.4-0.5-0.4-1.3,0-1.8l8-8c0.2-0.2,0.5-0.2,0.8-0.2c0.3,0,0.6,0.1,0.9,0.4l7.8,7.8
			c2.2,2.2,5.7,2.5,8.2,0.7c1.5-0.8,3.1-1.6,4.7-2.3c1.7-0.7,3.5-1.2,5.3-1.6c2.8-0.8,4.8-3.3,4.8-6.2v-11.1c0-0.7,0.6-1.2,1.2-1.2
			h11.1c0.3,0,0.6,0.1,0.9,0.4c0.2,0.2,0.4,0.6,0.4,0.9v11c0,3.1,2.2,5.7,5.2,6.3c1.7,0.5,3.5,1.1,5.1,1.8c1.8,0.7,3.5,1.6,5.2,2.6
			c2.5,1.4,5.7,1,7.7-1l7.8-7.8c0.2-0.2,0.5-0.2,0.8-0.2c0.3,0,0.6,0.1,0.9,0.4l8,8c0.2,0.2,0.4,0.6,0.4,0.9c0,0.3-0.1,0.6-0.4,0.9
			l-7.8,7.8c-2.2,2.2-2.5,5.7-0.7,8.2c0.9,1.5,1.6,3.1,2.3,4.7c0.7,1.8,1.3,3.6,1.8,5.4c0.8,2.6,3.3,4.4,6,4.5H249
			c0.3,0,0.6,0.1,0.9,0.4c0.2,0.2,0.4,0.6,0.4,0.9L250.2,366L250.2,366z"/>
	</g>
</g>
<g>
	<g>
		<path class="st0" d="M356,216c-6.4-6.4-15-9.9-24-9.9H45.8c-18.7,0-33.8,15.2-33.8,33.8v187.5c0,18.7,15.2,33.8,33.8,33.8h286.2
			c18.7,0,33.8-15.2,33.8-33.8V239.9C365.9,230.9,362.3,222.4,356,216z M353,427.4c0,11.6-9.4,20.9-21,21H45.8
			c-11.5-0.1-20.8-9.4-20.9-21v-157h328V427.4z M353,257.7H25v-17.8c0-11.6,9.4-20.9,21-21h286.2c11.5,0.1,20.8,9.4,20.9,21V257.7z"
			/>
	</g>
</g>
</svg>
